<?xml version="1.0" encoding="UTF-8" standalone="no"?>
<svg xmlns:rdf="http://www.w3.org/1999/02/22-rdf-syntax-ns#" xmlns="http://www.w3.org/2000/svg" xml:space="preserve" height="172.51" width="252" version="1.1" xmlns:cc="http://creativecommons.org/ns#" xmlns:dc="http://purl.org/dc/elements/1.1/" viewBox="0 0 252 172.50684"><g><path d="m56.176 1.3672c-2.539 0-2.971 0.3583-0.967 1.916l3.338 2.5957c2.002 1.5577 5.277 5.0331 7.275 6.6001 0 0 2.54 1.99 6.326 8.212 3.338 5.477 53.042 100.46 53.802 100.46 0.75 0 50.45-94.982 53.79-100.46 3.79-6.221 6.33-8.211 6.33-8.211 2-1.567 5.28-5.0425 7.28-6.6001l3.34-2.5957c2-1.5577 1.56-1.916-0.98-1.916h-53.94c-2.54 0-2.51 0.8126-0.5 2.3574 0 0 2.52 1.7223 4.37 2.9551 1.84 1.2308 5.97 4.5343 6.28 6.3813 0.31 1.846-0.37 4.175-1.63 6.707-2.97 5.925-23.64 43.662-24.34 43.785-0.7-0.124-21.38-37.861-24.34-43.785-1.27-2.532-1.943-4.861-1.635-6.707 0.305-1.847 4.435-5.1505 6.275-6.3813 1.85-1.2329 4.37-2.9551 4.37-2.9551 2.01-1.5449 2.04-2.3574-0.5-2.3574h-53.942-0.002zm-55.24 71.268s0.01945 0.015 0.01953 0.015c-0.00151-0.005-0.00437-0.01-0.00586-0.015h-0.01367zm0.01953 0.015c0.69362 2.486 2.5346 4.467 3.9609 6.584 4.9381 6.417 13.337 13.521 19.66 18.647 6.601 5.449 32.535 20.349 44.996 26.079 12.552 6 39.788 14.21 40.018 14.35-0.33 0.41-17.173 3.74-25.018 4.89-2.448 0.42-5.032 0.55-7.384 0.69-0.601-1.52-1.57-3.64-3.417-3.64-1.844 0-2.398 3.59-2.306 4.66l-0.367 0.28c-10.571 1.43-21.507 2.4-32.305 3-2.079-1.66-3.115-2.25-6-1.9-2.936 0.37-3.954 2.5-3.785 4.34 0.228 2.54 2.353 5.96 4.43 5.96 2.769 0 4.292-1.76 4.982-0.23 1.523 4.42 4.735 8.82 9.004 11.71 6.895 4.68 13.793 4.76 20.719 1.76 6.921-3 9.001-9.92 9.462-13.38 0.184-1.37 0.278-4.9 0.278-4.9 9.829-1.24 48.067-9.32 48.067-9.32s38.23 8.08 48.06 9.32c0 0 0.1 3.53 0.28 4.9 0.46 3.46 2.54 10.38 9.46 13.38s13.83 2.92 20.72-1.76c4.27-2.89 7.48-7.28 9-11.71 0.69-1.53 2.22 0.23 4.99 0.23 2.07 0 4.2-3.42 4.43-5.96 0.16-1.84-0.85-3.97-3.79-4.34-2.88-0.35-3.92 0.24-6 1.9-10.8-0.6-21.74-1.57-32.3-3l-0.37-0.28c0.09-1.07-0.46-4.66-2.31-4.66s-2.81 2.12-3.41 3.64c-2.36-0.14-4.94-0.27-7.39-0.69-7.84-1.15-24.69-4.48-25.01-4.89 0.23-0.14 27.46-8.35 40.01-14.35 12.46-5.73 38.4-20.63 45-26.079 6.32-5.126 14.72-12.23 19.65-18.647 1.44-2.121 3.28-4.106 3.98-6.599 0 0-21.88 17.491-33.18 24.965-13.11 8.22-26.27 15.65-40.34 21.6-1.11 0.51-14.26 5.36-19.76 7.2-13.24 4.57-21.06 5.73-31.72 8.31-10.67-2.58-18.49-3.74-31.733-8.31-5.494-1.84-18.647-6.69-19.756-7.2-14.086-5.95-27.24-13.38-40.346-21.598-11.292-7.465-33.1-24.904-33.16-24.952zm67.879 79.78c-0.462 3.6-3.739 6.65-6.736 8.03-3 1.39-10.016 3-14.631 0.23-3.019-1.81-3.321-3.83-4.016-5.77l25.383-2.49zm114.23 0l25.39 2.49c-0.7 1.94-1 3.96-4.02 5.77-4.62 2.77-11.63 1.16-14.63-0.23-3-1.38-6.28-4.43-6.74-8.03z" transform="translate(0 -.0015793)" fill="#F84C1E"/><path d="m152.1 5.9976s8 6.156 4 14.154c-4 8-30.162 55.378-30.162 55.378s-26.16-47.378-30.16-55.378c-3.999-7.998 4.001-14.154 4.001-14.154h-32.923s6.7692 5.2308 11.077 12.308c4.3077 7.0748 48.006 93.224 48.006 93.224s43.701-86.149 48.008-93.224c4.3077-7.0769 11.077-12.308 11.077-12.308h-32.923z" fill="#fff"/></g></svg>