<svg id="41082720-6e50-4b1b-bf40-92578e61eaa4" data-name="Layer 1" xmlns="http://www.w3.org/2000/svg" viewBox="0 0 272.47 55.02"><title>branding_nask_logo_2</title><path d="M175,25.35c39.92,0,75.36,7.7,97.52,19.58C254.85,30.51,217.81,20.57,175,20.57S95,30.51,77.42,44.93C99.59,33.05,135,25.35,175,25.35Z" fill="#00adee"/><path d="M210.06,22.9h0Z" fill="none"/><polygon points="58.77 0 45.92 0 45.92 36.82 12.85 0 0 0 0 55.02 12.85 55.02 12.85 17.98 44.71 53.66 58.77 35.65 58.77 0" fill="#fff"/><path d="M261.79,0H244.23L217.57,21.44q7.83,1.32,15.12,3.13Z" fill="#fff"/><path d="M138.76,30.14a14.38,14.38,0,0,0,10,3.79h27.48c1.79,0,2.68,1.38,2.68,4.12s-.89,4.12-2.68,4.12H127.7l-7.42-9-.24.05c-4.85,1-9.52,2.13-14,3.38L120.71,55h55.56a14.47,14.47,0,0,0,11.35-5.12,17.69,17.69,0,0,0,4.18-11.85,18.07,18.07,0,0,0-2.7-9.8q-7-.32-14.15-.32A288.44,288.44,0,0,0,138.76,30.14Z" fill="#fff"/><path d="M197.15,28.74V55H210V34h8.24l27.5,21h17.56L238.66,35.21q-4.29-1.07-8.81-2A257.23,257.23,0,0,0,197.15,28.74Z" fill="#fff"/><path d="M93,0,63.22,36.27,47.8,55H65.35l.56-.71L93,20.22l7.49,9.42c4.18-1.54,8.66-2.95,13.4-4.22Z" fill="#fff"/><path d="M197,12.85h.16v6c4.35.36,8.64.82,12.84,1.39V0Z" fill="#fff"/><path d="M197.15,0H148.79a14.26,14.26,0,0,0-11.24,5,17.67,17.67,0,0,0-4.39,12,19.59,19.59,0,0,0,.45,4.2c4.17-.68,8.44-1.25,12.78-1.71A6.93,6.93,0,0,1,146,17q0-4.17,2.68-4.17h42.62L204.05,0Z" fill="#fff"/></svg>